# xmcd
#
# Track frame offsets: 
#        150
#        15105
#        30977
#        49875
#        64505
#        85490
#        95150
#        107502
#        120050
#        133752
#        146845
#        154977
#        166150
#
# Disc length: 2496 seconds
#
# Revision: 0
# Processed by: cddbd v1.5.2PL0 Copyright (c) Steve Scherf et al.
# Submitted via: ExactAudioCopy v0.99pb3
#
DISCID=9e09be0d
DTITLE=Slapping Suspenders - Who the Fuck Is God
DYEAR=2003
DGENRE=Crossover
TTITLE0=Raped by the Turkeys
TTITLE1=Sandy
TTITLE2=Helmut the frog/Dead
TTITLE3=Rock this town
TTITLE4=Paint it black
TTITLE5=Duke
TTITLE6=Slapping suspender
TTITLE7=Something
TTITLE8=Bitch bites
TTITLE9=Love Me
TTITLE10=Nude Girl
TTITLE11=Love the Pain
TTITLE12=Ebola
EXTD=
EXTT0=
EXTT1=
EXTT2=
EXTT3=
EXTT4=
EXTT5=
EXTT6=
EXTT7=
EXTT8=
EXTT9=
EXTT10=
EXTT11=
EXTT12=
PLAYORDER=
